<svg xmlns="http://www.w3.org/2000/svg" viewBox="0 0 400 400" fill="none" stroke="black" stroke-width="2">
  <rect width="400" height="400" fill="white"/>
  <!-- Body -->
  <ellipse cx="200" cy="200" rx="12" ry="80"/>
  <circle cx="200" cy="110" r="15"/>
  <!-- Antennae -->
  <path d="M195 95 Q180 60 170 50"/>
  <path d="M205 95 Q220 60 230 50"/>
  <circle cx="170" cy="50" r="4"/>
  <circle cx="230" cy="50" r="4"/>
  <!-- Left wing upper -->
  <path d="M188 150 Q100 100 80 150 Q60 200 100 220 Q140 240 188 200"/>
  <path d="M140 150 Q120 170 140 190"/>
  <circle cx="110" cy="160" r="15"/>
  <circle cx="130" cy="200" r="10"/>
  <!-- Left wing lower -->
  <path d="M188 200 Q140 240 100 280 Q80 300 110 320 Q160 340 188 270"/>
  <circle cx="120" cy="280" r="12"/>
  <circle cx="145" cy="310" r="8"/>
  <!-- Right wing upper -->
  <path d="M212 150 Q300 100 320 150 Q340 200 300 220 Q260 240 212 200"/>
  <path d="M260 150 Q280 170 260 190"/>
  <circle cx="290" cy="160" r="15"/>
  <circle cx="270" cy="200" r="10"/>
  <!-- Right wing lower -->
  <path d="M212 200 Q260 240 300 280 Q320 300 290 320 Q240 340 212 270"/>
  <circle cx="280" cy="280" r="12"/>
  <circle cx="255" cy="310" r="8"/>
</svg>
