<svg xmlns="http://www.w3.org/2000/svg" viewBox="0 0 400 400" fill="none" stroke="black" stroke-width="2">
  <rect width="400" height="400" fill="white"/>
  <!-- Bubbles -->
  <circle cx="320" cy="80" r="10"/>
  <circle cx="340" cy="110" r="6"/>
  <circle cx="350" cy="60" r="8"/>
  <!-- Fish body -->
  <ellipse cx="180" cy="200" rx="120" ry="70"/>
  <!-- Tail -->
  <path d="M300 200 Q350 150 340 120 Q320 160 300 170"/>
  <path d="M300 200 Q350 250 340 280 Q320 240 300 230"/>
  <path d="M300 170 L300 230"/>
  <!-- Eye -->
  <circle cx="100" cy="180" r="20"/>
  <circle cx="105" cy="175" r="8"/>
  <!-- Fins -->
  <path d="M150 130 Q180 80 210 130"/>
  <path d="M155 115 Q180 100 195 115"/>
  <path d="M150 270 Q180 320 210 270"/>
  <path d="M155 285 Q180 300 195 285"/>
  <!-- Side fin -->
  <path d="M140 210 Q110 250 150 260"/>
  <line x1="135" y1="230" x2="150" y2="250"/>
  <!-- Scales pattern -->
  <path d="M130 180 Q150 170 170 180 Q150 190 130 180"/>
  <path d="M170 180 Q190 170 210 180 Q190 190 170 180"/>
  <path d="M210 180 Q230 170 250 180 Q230 190 210 180"/>
  <path d="M150 200 Q170 190 190 200 Q170 210 150 200"/>
  <path d="M190 200 Q210 190 230 200 Q210 210 190 200"/>
  <path d="M230 200 Q250 190 270 200 Q250 210 230 200"/>
  <path d="M130 220 Q150 210 170 220 Q150 230 130 220"/>
  <path d="M170 220 Q190 210 210 220 Q190 230 170 220"/>
  <path d="M210 220 Q230 210 250 220 Q230 230 210 220"/>
  <!-- Mouth -->
  <path d="M60 195 Q50 200 60 205"/>
  <!-- Water plants -->
  <path d="M30 400 Q40 350 30 300 Q50 350 30 400"/>
  <path d="M50 400 Q60 360 50 320 Q70 360 50 400"/>
  <path d="M350 400 Q360 340 350 280 Q380 340 350 400"/>
  <path d="M370 400 Q380 350 370 300 Q400 350 370 400"/>
</svg>
