<svg xmlns="http://www.w3.org/2000/svg" viewBox="0 0 400 400" fill="none" stroke="black" stroke-width="2">
  <rect width="400" height="400" fill="white"/>
  <!-- Stem -->
  <path d="M200 220 Q190 280 200 380"/>
  <!-- Leaves -->
  <path d="M200 280 Q150 260 130 300 Q150 320 200 300"/>
  <path d="M200 320 Q250 300 270 340 Q250 360 200 340"/>
  <path d="M140 295 L160 280"/>
  <path d="M260 335 L240 320"/>
  <!-- Petals -->
  <ellipse cx="200" cy="130" rx="35" ry="60" transform="rotate(0 200 180)"/>
  <ellipse cx="200" cy="130" rx="35" ry="60" transform="rotate(45 200 180)"/>
  <ellipse cx="200" cy="130" rx="35" ry="60" transform="rotate(90 200 180)"/>
  <ellipse cx="200" cy="130" rx="35" ry="60" transform="rotate(135 200 180)"/>
  <ellipse cx="200" cy="130" rx="35" ry="60" transform="rotate(180 200 180)"/>
  <ellipse cx="200" cy="130" rx="35" ry="60" transform="rotate(225 200 180)"/>
  <ellipse cx="200" cy="130" rx="35" ry="60" transform="rotate(270 200 180)"/>
  <ellipse cx="200" cy="130" rx="35" ry="60" transform="rotate(315 200 180)"/>
  <!-- Center -->
  <circle cx="200" cy="180" r="30"/>
  <circle cx="190" cy="170" r="5"/>
  <circle cx="210" cy="170" r="5"/>
  <circle cx="200" cy="185" r="5"/>
  <circle cx="185" cy="190" r="4"/>
  <circle cx="215" cy="190" r="4"/>
</svg>
