<svg xmlns="http://www.w3.org/2000/svg" viewBox="0 0 400 400" fill="none" stroke="black" stroke-width="2">
  <rect width="400" height="400" fill="white"/>
  <!-- Ground -->
  <line x1="20" y1="340" x2="380" y2="340"/>
  <!-- House body -->
  <rect x="80" y="180" width="200" height="160"/>
  <!-- Roof -->
  <polygon points="60,180 180,80 300,180"/>
  <line x1="60" y1="180" x2="340" y2="180"/>
  <!-- Chimney -->
  <rect x="240" y="100" width="30" height="60"/>
  <path d="M245 95 Q255 85 265 95"/>
  <!-- Door -->
  <rect x="150" y="260" width="60" height="80"/>
  <circle cx="200" cy="305" r="5"/>
  <path d="M150 260 Q180 240 210 260"/>
  <!-- Windows -->
  <rect x="100" y="210" width="40" height="40"/>
  <line x1="120" y1="210" x2="120" y2="250"/>
  <line x1="100" y1="230" x2="140" y2="230"/>
  <rect x="220" y="210" width="40" height="40"/>
  <line x1="240" y1="210" x2="240" y2="250"/>
  <line x1="220" y1="230" x2="260" y2="230"/>
  <!-- Roof window -->
  <circle cx="180" cy="140" r="20"/>
  <line x1="180" y1="120" x2="180" y2="160"/>
  <line x1="160" y1="140" x2="200" y2="140"/>
  <!-- Sun -->
  <circle cx="350" cy="50" r="25"/>
  <line x1="350" y1="10" x2="350" y2="0"/>
  <line x1="380" y1="50" x2="395" y2="50"/>
  <line x1="375" y1="25" x2="385" y2="15"/>
  <line x1="375" y1="75" x2="385" y2="85"/>
  <!-- Path -->
  <path d="M150 340 Q140 370 130 400"/>
  <path d="M210 340 Q220 370 230 400"/>
  <!-- Flowers -->
  <circle cx="50" cy="330" r="8"/>
  <line x1="50" y1="338" x2="50" y2="340"/>
  <circle cx="350" cy="330" r="8"/>
  <line x1="350" y1="338" x2="350" y2="340"/>
</svg>
