<svg xmlns="http://www.w3.org/2000/svg" viewBox="0 0 400 400" fill="none" stroke="black" stroke-width="2">
  <rect width="400" height="400" fill="white"/>
  <!-- Main star -->
  <polygon points="200,30 230,140 350,140 255,200 285,320 200,250 115,320 145,200 50,140 170,140"/>
  <!-- Inner star detail -->
  <polygon points="200,80 215,140 270,140 225,175 245,240 200,205 155,240 175,175 130,140 185,140"/>
  <!-- Face -->
  <circle cx="175" cy="155" r="8"/>
  <circle cx="225" cy="155" r="8"/>
  <circle cx="178" cy="152" r="3"/>
  <circle cx="228" cy="152" r="3"/>
  <path d="M180 185 Q200 205 220 185"/>
  <!-- Sparkles around -->
  <line x1="40" y1="60" x2="60" y2="80"/>
  <line x1="60" y1="60" x2="40" y2="80"/>
  <line x1="340" y1="60" x2="360" y2="80"/>
  <line x1="360" y1="60" x2="340" y2="80"/>
  <line x1="40" y1="320" x2="60" y2="340"/>
  <line x1="60" y1="320" x2="40" y2="340"/>
  <line x1="340" y1="320" x2="360" y2="340"/>
  <line x1="360" y1="320" x2="340" y2="340"/>
  <!-- More sparkles -->
  <circle cx="100" cy="50" r="3"/>
  <circle cx="300" cy="50" r="3"/>
  <circle cx="50" cy="200" r="3"/>
  <circle cx="350" cy="200" r="3"/>
  <circle cx="100" cy="350" r="3"/>
  <circle cx="300" cy="350" r="3"/>
  <!-- Swirls -->
  <path d="M30 140 Q20 120 40 110"/>
  <path d="M370 140 Q380 120 360 110"/>
  <path d="M130 370 Q120 390 140 395"/>
  <path d="M270 370 Q280 390 260 395"/>
</svg>
