<svg xmlns="http://www.w3.org/2000/svg" viewBox="0 0 400 400" fill="none" stroke="black" stroke-width="2">
  <rect width="400" height="400" fill="white"/>
  <!-- Ground -->
  <path d="M0 360 Q100 350 200 360 Q300 370 400 360"/>
  <!-- Body -->
  <ellipse cx="200" cy="250" rx="100" ry="60"/>
  <!-- Legs -->
  <path d="M130 290 L120 360"/>
  <path d="M115 290 L105 360"/>
  <path d="M270 290 L280 360"/>
  <path d="M285 290 L295 360"/>
  <!-- Hooves -->
  <ellipse cx="112" cy="360" rx="12" ry="5"/>
  <ellipse cx="287" cy="360" rx="12" ry="5"/>
  <!-- Neck -->
  <path d="M280 220 Q320 180 310 130"/>
  <path d="M250 200 Q280 160 280 130"/>
  <!-- Head -->
  <ellipse cx="295" cy="110" rx="40" ry="30"/>
  <!-- Muzzle -->
  <path d="M330 115 Q350 115 355 125 Q350 135 330 130"/>
  <circle cx="345" cy="120" r="3"/>
  <!-- Eye -->
  <ellipse cx="310" cy="100" rx="8" ry="10"/>
  <circle cx="312" cy="98" r="4"/>
  <!-- Ear -->
  <path d="M280 85 Q270 60 285 70 Q295 75 285 85"/>
  <!-- Horn -->
  <path d="M305 80 L320 30"/>
  <line x1="308" y1="70" x2="318" y2="65"/>
  <line x1="310" y1="55" x2="318" y2="52"/>
  <line x1="315" y1="42" x2="320" y2="40"/>
  <!-- Mane -->
  <path d="M280 90 Q250 100 260 130 Q240 120 250 150 Q230 145 240 175"/>
  <path d="M275 100 Q255 110 260 130"/>
  <path d="M265 120 Q245 130 250 150"/>
  <!-- Tail -->
  <path d="M100 240 Q60 220 50 250 Q40 280 70 300 Q50 320 80 340"/>
  <path d="M100 250 Q70 240 65 260"/>
  <path d="M95 270 Q65 270 60 290"/>
  <!-- Stars around -->
  <polygon points="50,50 55,65 70,65 58,75 63,90 50,80 37,90 42,75 30,65 45,65"/>
  <polygon points="370,180 373,188 382,188 375,193 378,202 370,197 362,202 365,193 358,188 367,188"/>
  <circle cx="150" cy="80" r="5"/>
  <circle cx="380" cy="80" r="4"/>
  <circle cx="30" cy="150" r="3"/>
</svg>
